<?xml version="1.0" encoding="UTF-8"?>
<svg width="40px" height="36px" viewBox="0 0 40 36" version="1.1" xmlns="http://www.w3.org/2000/svg" xmlns:xlink="http://www.w3.org/1999/xlink">
    <!-- Generator: Sketch 64 (93537) - https://sketch.com -->
    <title>logo</title>
    <desc>Created with Sketch.</desc>
    <defs>
        <polygon id="path-1" points="0.0469 0.111746032 22.9989 0.111746032 22.9989 15.8637968 0.0469 15.8637968"></polygon>
        <polygon id="path-3" points="0.029125 0.230628571 22.981125 0.230628571 22.981125 16 0.029125 16"></polygon>
    </defs>
    <g id="Page-1" stroke="none" stroke-width="1" fill="none" fill-rule="evenodd">
        <g id="Desktop" transform="translate(-492.000000, -3704.000000)">
            <g id="design" transform="translate(0.000000, -1.000000)">
                <g id="footer" transform="translate(0.000000, 3693.000000)">
                    <g id="logo" transform="translate(492.000000, 12.000000)">
                        <g id="Group-3">
                            <mask id="mask-2" fill="white">
                                <use xlink:href="#path-1"></use>
                            </mask>
                            <g id="Clip-2"></g>
                            <path d="M22.64115,2.85147937 C22.4049,2.20665397 22.08265,1.6839873 21.67765,1.28093968 C21.2709,0.878146032 20.7864,0.581511111 20.22265,0.394590476 C19.65715,0.205892063 19.05815,0.111669841 18.42365,0.111669841 C16.43215,0.111669841 14.89815,0.981003175 13.8234,2.7176381 C12.7649,0.998273016 11.23265,0.139098413 9.22265,0.139098413 C7.6009,0.139098413 6.13765,0.775288889 4.83315,2.0456381 L4.83315,0.353447619 L0.0469,0.353447619 L0.0469,15.8637968 C0.69615,13.8175746 4.83315,14.134019 4.83315,14.134019 L4.83315,7.33808254 C4.83315,6.60436825 4.89065,6.00779683 5.0054,5.55166984 C5.12015,5.09554286 5.27865,4.73719365 5.48115,4.47662222 C5.68365,4.21782857 5.91665,4.04284444 6.18165,3.95370159 C6.44665,3.86455873 6.7284,3.81833651 7.02715,3.81833651 C7.3799,3.81833651 7.6884,3.86811429 7.95365,3.96766984 C8.21865,4.06519365 8.4329,4.24855873 8.60165,4.51801905 C8.7689,4.78697143 8.8969,5.14862222 8.98465,5.60474921 C9.07265,6.06265397 9.1164,6.64017778 9.1164,7.33808254 L9.1164,14.134019 L13.90265,14.134019 L13.90265,7.33808254 C13.90265,5.0648127 14.6704,3.92627302 16.20265,3.92627302 C16.48465,3.92627302 16.74965,3.97097143 16.9959,4.06011429 C17.2439,4.15103492 17.4584,4.32068571 17.64415,4.57109841 C17.82965,4.82303492 17.96965,5.17097143 18.06765,5.61846349 C18.1639,6.06595556 18.21265,6.64017778 18.21265,7.33808254 L18.21265,12.7864635 L22.9989,12.7864635 L22.9989,5.18824127 C22.9989,4.2759873 22.88065,3.49605079 22.64115,2.85147937" id="Fill-1" fill="#FFFFFF" mask="url(#mask-2)"></path>
                        </g>
                        <g id="Group-6" transform="translate(16.000000, 20.000000)">
                            <mask id="mask-4" fill="white">
                                <use xlink:href="#path-3"></use>
                            </mask>
                            <g id="Clip-5"></g>
                            <path d="M18.194875,1.97945397 L18.194875,8.77539048 C18.194875,9.50910476 18.139125,10.1041524 18.024375,10.5618032 C17.909625,11.0179302 17.751125,11.3762794 17.546875,11.635073 C17.345875,11.8956444 17.111375,12.0706286 16.846375,12.1595175 C16.583375,12.2489143 16.301375,12.2933587 16.001125,12.2933587 C15.648125,12.2933587 15.339375,12.2438349 15.076125,12.1460571 C14.811125,12.0482794 14.595375,11.8631365 14.428125,11.5957079 C14.261125,11.3265016 14.132875,10.9645968 14.043375,10.506946 C13.955625,10.051073 13.911625,9.47304127 13.911625,8.77539048 L13.911625,1.97945397 L9.125625,1.97945397 L9.125625,8.77539048 C9.125625,11.0486603 8.359375,12.1872 6.825125,12.1872 C6.543625,12.1872 6.278375,12.1425016 6.032125,12.051581 C5.785625,11.9626921 5.569625,11.7927873 5.384125,11.5423746 C5.198375,11.2904381 5.058375,10.9407238 4.962125,10.4950095 C4.864375,10.0457397 4.815125,9.47304127 4.815125,8.77539048 L4.815125,3.32193016 L0.029125,3.32193016 L0.029125,10.9237079 C0.029125,11.8372317 0.148875,12.6156444 0.387125,13.2602159 C0.624875,13.9050413 0.947375,14.4294857 1.352375,14.8325333 C1.757375,15.235327 2.241625,15.5301841 2.805375,15.7188825 C3.370625,15.907327 3.969875,16.0000254 4.604375,16.0000254 C6.597375,16.0000254 8.129875,15.1324698 9.204875,13.3958349 C10.262875,15.1136762 11.797125,15.9741206 13.805375,15.9741206 C15.429125,15.9741206 16.892125,15.3381841 18.194875,14.0660571 L18.194875,15.7600254 L22.981125,15.7600254 L22.981125,0.230628571 C22.406375,2.37183492 18.194875,1.97945397 18.194875,1.97945397" id="Fill-4" fill="#FFFFFF" mask="url(#mask-4)"></path>
                        </g>
                        <path d="M6.34075738,21.3011339 L14.2277123,21.3011339 L14.2277123,16 L4.66454551,16 C3.17873854,16 2.06700356,16.2869283 1.32734419,16.8587371 C0.442947158,17.5551972 0,18.5245079 0,19.7666692 C0,21.4150349 0.961756816,22.5970463 2.88552,23.3106555 C0.961756816,24.1294633 0,25.3892856 0,27.0911464 C0,28.6064143 0.872668289,29.8350099 2.61600848,30.7784689 C2.11741219,30.7265095 1.58512696,30.6988661 1.01740595,30.6988661 L0.296213114,30.6988661 L0.296213114,36 L16,36 C13.7885083,34.7806189 14.2277123,30.6988661 14.2277123,30.6988661 L7.29402957,30.6988661 C6.48724187,30.6988661 5.92101815,30.6090251 5.59935118,30.429343 C5.2776842,30.2478692 5.11597729,29.9420001 5.11597729,29.5101999 C5.11597729,28.9104917 5.58936927,28.6117894 6.53440639,28.6117894 L14.2277123,28.6117894 L14.2277123,23.3106555 L7.17774035,23.3106555 C5.73410693,23.3106555 5.01341319,22.9098262 5.01341319,22.1063759 C5.01341319,21.570657 5.45636035,21.3011339 6.34075738,21.3011339" id="Fill-7" fill="#FFFFFF"></path>
                        <path d="M37.1280969,12.6893445 C39.0427817,11.8702808 40,10.6107144 40,8.90885357 C40,7.39358571 39.1331885,6.16319844 37.3963365,5.22153114 C37.8925799,5.27349049 38.4240919,5.30113389 38.9873952,5.30113389 L39.7066749,5.30113389 L39.7066749,0 L24,0 C25.7870227,0.862576467 25.8553244,4.12398577 25.8391804,5.30113389 L32.7401428,5.30113389 C33.5451102,5.30113389 34.1066749,5.39097494 34.4270723,5.57065704 C34.74896,5.75187489 34.9081652,6.05774399 34.9081652,6.4898001 C34.9081652,7.08950831 34.4387457,7.38846656 33.4981683,7.38846656 L25.8391804,7.38846656 L25.8391804,12.6893445 L32.8558833,12.6893445 C34.2929525,12.6893445 35.0104936,13.0901738 35.0104936,13.8918324 C35.0104936,14.429343 34.571127,14.6988661 33.6891649,14.6988661 L25.8391804,14.6988661 L25.8391804,20 L35.3574666,20 C36.836262,20 37.9444893,19.7130717 38.6806582,19.1412629 C39.5608817,18.4448028 40,17.4754921 40,16.2315391 C40,14.5847091 39.0427817,13.4029537 37.1280969,12.6893445" id="Fill-9" fill="#FFFFFF"></path>
                    </g>
                </g>
            </g>
        </g>
    </g>
</svg>